HIERARCHY
ROOT Hips
{
	OFFSET 0.000000 0.000000 0.000000
	CHANNELS 6 Xposition Yposition Zposition Xrotation Yrotation Zrotation
	JOINT Spine
	{
		OFFSET 0.000000 0.049001 0.073502
		CHANNELS 3 Xrotation Yrotation Zrotation
		JOINT Spine1
		{
			OFFSET 0.000000 0.017018 0.096514
			CHANNELS 3 Xrotation Yrotation Zrotation
			JOINT Spine2
			{
				OFFSET 0.000000 0.008542 0.097630
				CHANNELS 3 Xrotation Yrotation Zrotation
				JOINT Spine3
				{
					OFFSET 0.000000 0.000000 0.098003
					CHANNELS 3 Xrotation Yrotation Zrotation
					JOINT Neck
					{
						OFFSET 0.000000 -0.036751 0.257258
						CHANNELS 3 Xrotation Yrotation Zrotation
						JOINT Head
						{
							OFFSET 0.000000 -0.023400 0.132707
							CHANNELS 3 Xrotation Yrotation Zrotation
							End Site
							{
								OFFSET 0.000000 0.000000 0.000000
							}
						}
					}
					JOINT RightShoulder
					{
						OFFSET -0.030410 -0.050683 0.164214
						CHANNELS 3 Xrotation Yrotation Zrotation
						JOINT RightArm
						{
							OFFSET -0.151036 0.000000 0.000000
							CHANNELS 3 Xrotation Yrotation Zrotation
							JOINT RightForeArm
							{
								OFFSET -0.279942 0.000000 0.000000
								CHANNELS 3 Xrotation Yrotation Zrotation
								JOINT RightHand
								{
									OFFSET -0.265034 0.000000 0.000000
									CHANNELS 3 Xrotation Yrotation Zrotation
									JOINT RightHandEnd
									{
										OFFSET -0.071866 0.000000 0.000000
										CHANNELS 3 Xrotation Yrotation Zrotation
										End Site
										{
											OFFSET 0.000000 0.000000 0.000000
										}
									}
									JOINT RightHandThumb1
									{
										OFFSET -0.028746 -0.047911 -0.019164
										CHANNELS 3 Xrotation Yrotation Zrotation
										End Site
										{
											OFFSET 0.000000 0.000000 0.000000
										}
									}
								}
							}
						}
					}
					JOINT LeftShoulder
					{
						OFFSET 0.030410 -0.050683 0.164214
						CHANNELS 3 Xrotation Yrotation Zrotation
						JOINT LeftArm
						{
							OFFSET 0.151036 0.000000 0.000000
							CHANNELS 3 Xrotation Yrotation Zrotation
							JOINT LeftForeArm
							{
								OFFSET 0.279942 0.000000 0.000000
								CHANNELS 3 Xrotation Yrotation Zrotation
								JOINT LeftHand
								{
									OFFSET 0.265034 0.000000 0.000000
									CHANNELS 3 Xrotation Yrotation Zrotation
									JOINT LeftHandEnd
									{
										OFFSET 0.071866 0.000000 0.000000
										CHANNELS 3 Xrotation Yrotation Zrotation
										End Site
										{
											OFFSET 0.000000 0.000000 0.000000
										}
									}
									JOINT LeftHandThumb1
									{
										OFFSET 0.028746 -0.047911 -0.019164
										CHANNELS 3 Xrotation Yrotation Zrotation
										End Site
										{
											OFFSET 0.000000 0.000000 0.000000
										}
									}
								}
							}
						}
					}
				}
			}
		}
	}
	JOINT RightUpLeg
	{
		OFFSET -0.090216 0.000000 -0.026355
		CHANNELS 3 Xrotation Yrotation Zrotation
		JOINT RightLeg
		{
			OFFSET 0.000000 0.000000 -0.402871
			CHANNELS 3 Xrotation Yrotation Zrotation
			JOINT RightFoot
			{
				OFFSET 0.000000 0.000000 -0.414145
				CHANNELS 3 Xrotation Yrotation Zrotation
				JOINT RightToeBase
				{
					OFFSET 0.000000 -0.146359 -0.053270
					CHANNELS 3 Xrotation Yrotation Zrotation
					End Site
					{
						OFFSET 0.000000 0.000000 0.000000
					}
				}
			}
		}
	}
	JOINT LeftUpLeg
	{
		OFFSET 0.090216 0.000000 -0.026355
		CHANNELS 3 Xrotation Yrotation Zrotation
		JOINT LeftLeg
		{
			OFFSET 0.000000 0.000000 -0.402871
			CHANNELS 3 Xrotation Yrotation Zrotation
			JOINT LeftFoot
			{
				OFFSET 0.000000 0.000000 -0.414145
				CHANNELS 3 Xrotation Yrotation Zrotation
				JOINT LeftToeBase
				{
					OFFSET 0.000000 -0.146359 -0.053270
					CHANNELS 3 Xrotation Yrotation Zrotation
					End Site
					{
						OFFSET 0.000000 0.000000 0.000000
					}
				}
			}
		}
	}
}
MOTION
Frames: 13
Frame Time: 0.033333
-0.770044 -0.564883 0.910102 0.844600 -1.940400 93.605000 -0.726300 1.005200 0.286300 -1.117200 -0.047400 -0.024000 5.744500 0.374900 -0.812900 2.279100 -0.142900 -0.536400 6.167800 -0.430000 2.961200 3.083600 2.330900 5.362500 2.312900 7.193700 -4.462300 -5.466900 -22.253200 9.500900 0.000000 0.000000 1.217000 -20.777800 5.549600 -3.661900 0.000000 0.000000 0.000000 0.000000 0.000000 0.000000 1.271800 -10.603600 5.555300 8.923300 11.663400 -14.152200 0.000000 0.000000 -0.823000 -20.883300 3.606700 8.140200 0.000000 0.000000 0.000000 0.000000 0.000000 0.000000 1.814600 -2.705300 -31.482900 5.632900 0.000000 0.000000 -6.841100 1.186500 0.837600 -0.975400 0.000000 0.000000 1.480800 2.424200 27.121300 9.141600 0.000000 0.000000 -7.277100 -1.678900 -3.877500 -6.293900 0.000000 0.000000 
-0.770075 -0.564934 0.910085 0.839600 -1.926800 93.619200 -0.729800 1.001300 0.289700 -1.124400 -0.046900 -0.022600 5.747700 0.381900 -0.815500 2.287600 -0.135600 -0.545900 6.224300 -0.416600 2.962500 3.110400 2.339400 5.334600 2.309700 7.184700 -4.461600 -5.474200 -22.277800 9.528100 0.000000 0.000000 1.219300 -20.849900 5.574400 -3.598500 0.000000 0.000000 0.000000 0.000000 0.000000 0.000000 1.251900 -10.605100 5.565500 8.963600 11.680900 -14.150300 0.000000 0.000000 -0.832500 -20.933700 3.628000 8.169500 0.000000 0.000000 0.000000 0.000000 0.000000 0.000000 1.806800 -2.722700 -31.416000 5.607500 0.000000 0.000000 -6.825300 1.207000 0.759700 -1.000900 0.000000 0.000000 1.452400 2.410800 27.109800 9.165100 0.000000 0.000000 -7.287000 -1.679200 -3.878800 -6.280900 0.000000 0.000000 
-0.770120 -0.565000 0.910074 0.828300 -1.898900 93.641900 -0.748400 0.996900 0.295400 -1.136100 -0.056900 -0.024000 5.765200 0.394800 -0.818500 2.302300 -0.124000 -0.565000 6.298200 -0.383700 2.966900 3.167300 2.359500 5.283900 2.299200 7.166200 -4.452400 -5.471700 -22.295900 9.568500 0.000000 0.000000 1.249400 -20.949300 5.548400 -3.566000 0.000000 0.000000 0.000000 0.000000 0.000000 0.000000 1.250100 -10.602400 5.595000 9.034200 11.701100 -14.158700 0.000000 0.000000 -0.844300 -21.015900 3.697900 8.225100 0.000000 0.000000 0.000000 0.000000 0.000000 0.000000 1.784600 -2.752400 -31.309600 5.576400 0.000000 0.000000 -6.794900 1.237500 0.644000 -1.038200 0.000000 0.000000 1.403900 2.388800 27.081400 9.195700 0.000000 0.000000 -7.289900 -1.686000 -3.869000 -6.270400 0.000000 0.000000 
-0.770141 -0.565069 0.910069 0.815700 -1.865300 93.671600 -0.772400 0.994300 0.302700 -1.151700 -0.065500 -0.025100 5.789500 0.395200 -0.822500 2.316800 -0.116800 -0.575900 6.359200 -0.326700 2.960500 3.246900 2.395600 5.226900 2.283600 7.156100 -4.453100 -5.463000 -22.305300 9.599500 0.000000 0.000000 1.291800 -21.028600 5.549200 -3.538500 0.000000 0.000000 0.000000 0.000000 0.000000 0.000000 1.274300 -10.588100 5.617200 9.082100 11.728200 -14.177500 0.000000 0.000000 -0.848500 -21.082000 3.762500 8.285300 0.000000 0.000000 0.000000 0.000000 0.000000 0.000000 1.759200 -2.784500 -31.198600 5.545800 0.000000 0.000000 -6.763600 1.260200 0.520600 -1.067300 0.000000 0.000000 1.351800 2.364000 27.049800 9.224600 0.000000 0.000000 -7.290200 -1.688200 -3.862800 -6.267100 0.000000 0.000000 
-0.770128 -0.565170 0.910052 0.807100 -1.832200 93.714800 -0.784400 0.998000 0.306600 -1.159500 -0.067700 -0.025000 5.792500 0.383500 -0.832600 2.326200 -0.116200 -0.573000 6.407400 -0.257300 2.935600 3.323500 2.430400 5.190200 2.260900 7.158100 -4.461100 -5.466100 -22.315200 9.598400 0.000000 0.000000 1.315900 -21.055100 5.620200 -3.483200 0.000000 0.000000 0.000000 0.000000 0.000000 0.000000 1.298400 -10.567600 5.626900 9.072900 11.766700 -14.202600 0.000000 0.000000 -0.838000 -21.100400 3.757800 8.321800 0.000000 0.000000 0.000000 0.000000 0.000000 0.000000 1.731500 -2.809100 -31.107900 5.531300 0.000000 0.000000 -6.755700 1.272300 0.391600 -1.080700 0.000000 0.000000 1.297500 2.336900 27.011000 9.265000 0.000000 0.000000 -7.304000 -1.679600 -3.871100 -6.271400 0.000000 0.000000 
-0.770100 -0.565330 0.910034 0.801600 -1.788200 93.773300 -0.794900 1.003400 0.307800 -1.162900 -0.065100 -0.024600 5.781700 0.379700 -0.843800 2.329800 -0.115600 -0.571600 6.461900 -0.206800 2.911200 3.365800 2.444000 5.161800 2.243400 7.145500 -4.473800 -5.486900 -22.314500 9.584300 0.000000 0.000000 1.304200 -21.041400 5.668100 -3.441900 0.000000 0.000000 0.000000 0.000000 0.000000 0.000000 1.299000 -10.558600 5.628200 9.029100 11.809000 -14.217500 0.000000 0.000000 -0.818700 -21.076900 3.700600 8.314700 0.000000 0.000000 0.000000 0.000000 0.000000 0.000000 1.684800 -2.827300 -31.027800 5.536800 0.000000 0.000000 -6.772800 1.285700 0.245200 -1.092200 0.000000 0.000000 1.226100 2.307600 26.954100 9.318600 0.000000 0.000000 -7.328900 -1.669900 -3.884800 -6.283400 0.000000 0.000000 
-0.770006 -0.565541 0.910034 0.799100 -1.753400 93.839100 -0.801400 1.007100 0.310800 -1.166900 -0.067400 -0.024000 5.779500 0.400300 -0.835500 2.333800 -0.111200 -0.585300 6.528100 -0.199200 2.913800 3.366400 2.442300 5.093100 2.249000 7.105000 -4.505900 -5.502000 -22.290700 9.587700 0.000000 0.000000 1.271200 -21.030700 5.613900 -3.466300 0.000000 0.000000 0.000000 0.000000 0.000000 0.000000 1.303400 -10.573200 5.613100 8.989000 11.836100 -14.220300 0.000000 0.000000 -0.794800 -21.018600 3.666400 8.269400 0.000000 0.000000 0.000000 0.000000 0.000000 0.000000 1.656400 -2.849900 -30.957000 5.532800 0.000000 0.000000 -6.786300 1.297600 0.109300 -1.115600 0.000000 0.000000 1.181200 2.282900 26.908600 9.345300 0.000000 0.000000 -7.342200 -1.659900 -3.910100 -6.300800 0.000000 0.000000 
-0.769823 -0.565798 0.910052 0.795200 -1.722700 93.905300 -0.818500 1.009600 0.320000 -1.178300 -0.074200 -0.023400 5.800700 0.432800 -0.813100 2.343100 -0.106700 -0.605100 6.584400 -0.217600 2.926400 3.352700 2.446000 4.985800 2.260000 7.056300 -4.560500 -5.503800 -22.258700 9.596300 0.000000 0.000000 1.252600 -21.018000 5.545200 -3.523800 0.000000 0.000000 0.000000 0.000000 0.000000 0.000000 1.327400 -10.586900 5.578300 8.972000 11.820700 -14.218200 0.000000 0.000000 -0.771500 -20.929900 3.671300 8.216200 0.000000 0.000000 0.000000 0.000000 0.000000 0.000000 1.660700 -2.891400 -30.890800 5.478800 0.000000 0.000000 -6.765000 1.302400 -0.002800 -1.142600 0.000000 0.000000 1.167900 2.262400 26.891000 9.324600 0.000000 0.000000 -7.334400 -1.641300 -3.945100 -6.310200 0.000000 0.000000 
-0.769562 -0.566110 0.910059 0.790500 -1.683800 93.966800 -0.845000 1.022000 0.331400 -1.195600 -0.078900 -0.023400 5.830100 0.447400 -0.819900 2.354500 -0.100600 -0.617500 6.608700 -0.214700 2.905300 3.364500 2.456400 4.918100 2.250400 7.024400 -4.602900 -5.512900 -22.246500 9.595100 0.000000 0.000000 1.260600 -20.991400 5.580500 -3.523300 0.000000 0.000000 0.000000 0.000000 0.000000 0.000000 1.331100 -10.572800 5.561900 8.986400 11.763200 -14.204800 0.000000 0.000000 -0.767000 -20.856500 3.656300 8.181400 0.000000 0.000000 0.000000 0.000000 0.000000 0.000000 1.687200 -2.950600 -30.822100 5.368200 0.000000 0.000000 -6.717100 1.305900 -0.108400 -1.159800 0.000000 0.000000 1.165000 2.244300 26.890500 9.274400 0.000000 0.000000 -7.316000 -1.614300 -3.986500 -6.299100 0.000000 0.000000 
-0.769247 -0.566461 0.910059 0.787400 -1.633900 94.008400 -0.868700 1.042400 0.340300 -1.211500 -0.074200 -0.023300 5.845900 0.437600 -0.875600 2.361000 -0.090700 -0.623300 6.610200 -0.165600 2.849500 3.405500 2.455500 4.927600 2.222900 7.004000 -4.597100 -5.540200 -22.246000 9.591600 0.000000 0.000000 1.290300 -20.985600 5.683200 -3.458200 0.000000 0.000000 0.000000 0.000000 0.000000 0.000000 1.288200 -10.536500 5.606600 9.020600 11.699800 -14.173800 0.000000 0.000000 -0.788800 -20.848300 3.617300 8.167000 0.000000 0.000000 0.000000 0.000000 0.000000 0.000000 1.709100 -3.010000 -30.744500 5.248200 0.000000 0.000000 -6.680400 1.314800 -0.217400 -1.169000 0.000000 0.000000 1.151800 2.226700 26.895900 9.231600 0.000000 0.000000 -7.305700 -1.592600 -4.029400 -6.271800 0.000000 0.000000 
-0.768909 -0.566804 0.910064 0.784800 -1.574400 94.009200 -0.895200 1.056300 0.347400 -1.224700 -0.071600 -0.024300 5.849900 0.430500 -0.922400 2.364000 -0.078000 -0.632400 6.620600 -0.092500 2.810700 3.438100 2.442100 4.936100 2.205500 6.972800 -4.562700 -5.565300 -22.223200 9.601200 0.000000 0.000000 1.325300 -21.041400 5.732200 -3.402000 0.000000 0.000000 0.000000 0.000000 0.000000 0.000000 1.235900 -10.504900 5.680400 9.041500 11.669100 -14.136900 0.000000 0.000000 -0.814200 -20.886700 3.623300 8.169600 0.000000 0.000000 0.000000 0.000000 0.000000 0.000000 1.703400 -3.056900 -30.639400 5.166100 0.000000 0.000000 -6.670100 1.325900 -0.324100 -1.178100 0.000000 0.000000 1.122500 2.208100 26.916300 9.211300 0.000000 0.000000 -7.313000 -1.582900 -4.061600 -6.255000 0.000000 0.000000 
-0.768523 -0.567131 0.910067 0.781400 -1.525400 93.968200 -0.921000 1.054000 0.357800 -1.237800 -0.082700 -0.025300 5.855900 0.445900 -0.902600 2.369800 -0.068600 -0.643500 6.655500 -0.025200 2.814100 3.439900 2.436900 4.862900 2.203800 6.938300 -4.548000 -5.565700 -22.180600 9.614900 0.000000 0.000000 1.349400 -21.111200 5.703000 -3.400600 0.000000 0.000000 0.000000 0.000000 0.000000 0.000000 1.223200 -10.487900 5.713800 9.040100 11.673700 -14.119500 0.000000 0.000000 -0.813600 -20.903700 3.675900 8.196200 0.000000 0.000000 0.000000 0.000000 0.000000 0.000000 1.698000 -3.098500 -30.491400 5.110000 0.000000 0.000000 -6.663100 1.333800 -0.427900 -1.182300 0.000000 0.000000 1.109300 2.189400 26.954900 9.190600 0.000000 0.000000 -7.329700 -1.578100 -4.066400 -6.260500 0.000000 0.000000 
-0.768088 -0.567482 0.910046 0.778700 -1.480800 93.913600 -0.951900 1.045900 0.371600 -1.255400 -0.100300 -0.025100 5.876200 0.469200 -0.850300 2.379300 -0.063900 -0.648600 6.686600 0.033800 2.824800 3.440200 2.452000 4.753900 2.198700 6.918400 -4.560300 -5.557200 -22.151800 9.621600 0.000000 0.000000 1.355700 -21.116200 5.663100 -3.426000 0.000000 0.000000 0.000000 0.000000 0.000000 0.000000 1.233000 -10.462800 5.703300 9.050400 11.676200 -14.118000 0.000000 0.000000 -0.798500 -20.887900 3.671500 8.246100 0.000000 0.000000 0.000000 0.000000 0.000000 0.000000 1.703200 -3.143600 -30.318300 5.046400 0.000000 0.000000 -6.645500 1.346400 -0.536800 -1.178100 0.000000 0.000000 1.110400 2.172900 26.992100 9.155700 0.000000 0.000000 -7.342000 -1.579300 -4.044200 -6.264800 0.000000 0.000000 
